<svg version="1.0" xmlns="http://www.w3.org/2000/svg"
 width="150.000000pt" height="150.000000pt" viewBox="0 0 150.000000 150.000000"
 preserveAspectRatio="xMidYMid meet">

<g transform="translate(0.000000,150.000000) scale(0.100000,-0.100000)"
fill="#000000" stroke="none">
<path d="M0 750 l0 -750 750 0 750 0 0 750 0 750 -750 0 -750 0 0 -750z m683
689 c-7 -7 -9 -31 -6 -64 l6 -52 -34 -5 c-19 -3 -35 -5 -36 -4 -2 2 -5 25 -8
52 l-5 49 13 -38 c7 -21 16 -38 20 -38 4 1 12 1 17 1 16 0 12 67 -5 84 -22 21
-19 26 17 26 24 0 29 -3 21 -11z m53 -16 c3 -16 10 -43 14 -60 9 -34 -5 -47
-17 -17 -5 14 -9 13 -25 -7 l-20 -24 6 49 c3 27 6 57 6 67 0 29 29 22 36 -8z
m124 18 c0 -5 -9 -11 -20 -14 -11 -3 -20 -13 -20 -22 0 -9 4 -14 9 -10 5 3 12
1 16 -5 3 -5 0 -10 -8 -10 -8 0 -18 -14 -22 -32 -10 -49 -18 -15 -10 48 6 49
9 54 31 54 13 0 24 -4 24 -9z m20 -71 c-7 -34 -17 -57 -21 -53 -4 4 -3 28 2
53 15 65 19 74 26 67 3 -4 0 -34 -7 -67z m-310 50 c0 -5 -7 -10 -15 -10 -17 0
-17 -2 -9 -24 3 -8 12 -12 20 -9 8 3 14 1 14 -5 0 -6 -5 -12 -12 -14 -7 -3 -9
-12 -5 -22 5 -11 13 -16 23 -12 10 4 14 1 12 -6 -3 -7 -13 -13 -23 -13 -24 0
-62 104 -43 117 18 11 38 10 38 -2z m390 0 c13 -8 13 -10 -2 -10 -12 0 -22
-17 -34 -57 -19 -66 -32 -55 -15 13 6 25 9 49 6 55 -8 12 26 12 45 -1z m-452
-32 c5 -7 16 -30 23 -51 12 -33 11 -39 -1 -47 -27 -17 -37 -10 -59 42 -17 40
-19 53 -9 60 19 11 34 10 46 -4z m612 -56 c0 -19 -46 -92 -58 -92 -17 1 -43
28 -33 35 6 3 11 1 11 -4 0 -25 28 -8 44 25 22 47 12 57 -19 19 -30 -37 -32
-28 -4 19 18 30 24 34 40 26 10 -6 19 -19 19 -28z m31 -29 c-16 -30 -70 -89
-71 -77 0 14 60 94 71 94 6 0 6 -7 0 -17z m-816 -13 c3 -5 -1 -10 -9 -10 -27
0 -18 -19 12 -26 47 -10 52 -13 52 -32 0 -24 -19 -42 -36 -35 -22 8 -16 25 6
18 12 -4 20 -2 20 5 0 11 -7 14 -53 24 -30 7 -43 27 -33 51 6 17 32 20 41 5z
m863 -2 c15 -15 16 -38 2 -38 -5 0 -10 7 -10 15 0 8 -4 15 -10 15 -5 0 -10
-15 -10 -32 0 -38 -8 -52 -32 -61 -18 -6 -44 24 -31 37 12 12 22 6 16 -10 -4
-12 -2 -15 8 -12 8 2 15 20 17 39 5 51 26 71 50 47z m-918 -48 c0 -5 -7 -10
-15 -10 -8 0 -15 -4 -15 -9 0 -11 29 -23 41 -16 17 11 50 -16 47 -38 -3 -22
-38 -38 -38 -18 0 6 7 11 16 11 13 0 14 3 4 15 -7 9 -21 13 -34 9 -31 -7 -64
29 -46 51 14 17 40 20 40 5z m983 -36 c-3 -8 -10 -14 -15 -14 -6 0 -8 7 -5 15
12 28 -10 24 -43 -10 -19 -20 -29 -38 -25 -45 5 -8 3 -11 -5 -8 -27 9 -21 29
19 70 40 39 42 40 61 23 10 -9 16 -23 13 -31z m-329 -192 c64 -112 116 -210
116 -217 0 -8 4 -15 9 -15 12 0 61 -87 53 -94 -3 -3 -40 -6 -83 -6 -70 0 -78
2 -84 21 -5 14 -2 25 6 30 12 8 11 11 -1 19 -13 9 -13 11 0 21 13 9 12 10 -2
5 -13 -4 -23 4 -34 27 -9 18 -39 70 -67 115 -53 89 -51 89 -87 21 -11 -21 -25
-43 -33 -50 -7 -8 -19 -29 -26 -47 -9 -22 -17 -30 -24 -23 -5 5 -16 7 -25 4
-10 -4 -7 7 11 38 14 24 47 82 74 128 26 46 53 84 58 84 11 0 155 -241 155
-260 0 -7 3 -13 8 -13 4 0 16 -16 26 -35 11 -21 27 -35 38 -35 22 0 22 4 2 35
-9 14 -14 34 -11 46 4 15 2 19 -8 15 -16 -6 -119 169 -111 190 3 8 -1 14 -9
14 -7 0 -28 27 -47 60 -18 33 -36 60 -40 60 -4 0 -28 -36 -54 -81 -43 -74 -47
-79 -60 -61 -12 17 -8 29 34 105 46 84 62 103 62 72 0 -8 5 -15 10 -15 7 0 7
7 0 21 -7 11 -9 28 -5 37 5 13 8 14 19 1 8 -8 66 -105 130 -217z m-720 164
c-4 -16 -1 -25 10 -29 9 -4 16 -2 16 3 0 6 5 10 11 10 6 0 9 -6 6 -14 -8 -21
16 -39 31 -24 6 6 15 8 19 5 4 -4 0 -15 -9 -24 -15 -15 -21 -13 -67 21 -45 33
-49 39 -38 57 16 26 29 24 21 -5z m1076 7 c-1 -13 -90 -76 -97 -70 -5 6 7 18
66 64 18 14 31 16 31 6z m40 -61 c0 -21 -47 -37 -65 -22 -12 10 -18 10 -30 0
-9 -7 -19 -10 -23 -6 -4 4 0 11 8 16 8 5 31 20 50 33 31 22 36 23 47 8 7 -9
13 -22 13 -29z m-120 34 c0 -3 -4 -8 -10 -11 -5 -3 -10 -1 -10 4 0 6 5 11 10
11 6 0 10 -2 10 -4z m-998 -44 c7 -10 26 -22 41 -26 15 -3 25 -11 22 -16 -3
-6 -15 -6 -31 0 -38 15 -42 12 -14 -10 41 -31 18 -31 -38 1 -45 27 -51 33 -42
50 13 24 45 25 62 1z m451 -88 c21 -36 37 -72 35 -81 -6 -30 -24 -24 -47 17
-26 47 -33 49 -51 16 -7 -14 -18 -22 -26 -19 -8 3 -14 0 -14 -6 0 -6 4 -11 9
-11 8 0 -67 -137 -175 -320 -10 -16 -15 -32 -12 -35 3 -3 44 -6 92 -6 47 -1
89 -5 92 -10 3 -5 -1 -9 -9 -9 -8 0 -17 -7 -21 -15 -8 -22 -239 -22 -234 -1 4
19 312 546 318 546 3 0 23 -30 43 -66z m637 33 c-23 -14 -34 -28 -32 -39 4
-23 14 -23 63 3 22 11 46 18 52 16 7 -3 -15 -17 -47 -31 -62 -28 -61 -29 -87
17 -12 21 -13 19 26 40 45 24 65 20 25 -6z m-1160 1 c0 -7 20 -21 45 -31 25
-11 45 -23 45 -28 0 -13 -6 -12 -51 12 -23 11 -47 18 -55 15 -15 -6 -18 3 -8
28 7 19 24 21 24 4z m10 -73 c7 -8 25 -15 41 -15 16 0 29 -5 29 -10 0 -14 -73
-6 -78 9 -4 13 -32 15 -32 3 0 -11 46 -32 70 -32 20 0 36 -16 23 -23 -5 -2
-33 6 -64 17 -51 19 -56 23 -48 44 10 25 41 29 59 7z m1226 -12 l-30 -25 32 7
c21 4 32 3 32 -4 0 -6 -9 -11 -20 -11 -10 0 -35 -8 -55 -17 -46 -22 -58 -8
-20 23 33 26 30 29 -9 14 -16 -6 -26 -6 -26 0 0 9 81 38 110 39 9 0 4 -9 -14
-26z m-726 -34 c7 -13 8 -24 2 -32 -6 -7 -19 -28 -30 -47 -11 -19 -40 -71 -65
-115 -25 -44 -45 -81 -44 -82 1 -1 28 -3 60 -4 l58 -3 30 55 c16 30 35 64 41
77 14 27 25 28 33 2 4 -13 -5 -39 -25 -75 l-31 -55 66 0 c36 0 75 5 86 10 16
9 24 6 44 -16 14 -15 22 -30 20 -34 -8 -13 -455 -12 -455 1 0 6 24 52 53 102
30 51 73 125 96 165 23 39 44 72 46 72 2 0 9 -9 15 -21z m-498 -19 c23 0 48
-28 42 -45 -6 -16 -49 -18 -94 -6 -47 13 -32 68 15 56 11 -2 28 -5 37 -5z
m655 -7 c4 -10 9 -20 13 -23 11 -9 200 -338 200 -349 0 -8 -54 -11 -175 -11
-102 1 -175 5 -175 11 0 5 -9 4 -20 -3 -25 -16 -35 -6 -20 21 10 20 19 21 160
21 83 0 150 3 150 7 0 4 -22 46 -50 95 -31 54 -47 94 -44 105 4 13 3 14 -3 5
-7 -9 -14 -4 -28 22 -10 19 -24 32 -30 30 -16 -6 35 -111 56 -117 17 -5 33
-47 18 -47 -5 0 -9 5 -9 11 0 8 -5 7 -16 -2 -13 -10 -17 -10 -24 0 -5 9 -10
10 -14 2 -7 -11 -86 -16 -86 -5 0 3 5 14 10 25 8 14 21 19 51 19 23 0 38 4 34
10 -3 5 -11 7 -18 5 -17 -7 -70 95 -61 118 3 10 12 16 19 13 8 -3 18 8 25 25
14 33 28 37 37 12z m623 -20 c0 -7 -4 -13 -10 -13 -5 0 -10 7 -10 15 0 17 -2
18 -24 9 -9 -3 -14 -10 -11 -14 3 -5 1 -11 -5 -15 -5 -3 -10 1 -10 9 0 18 -2
19 -24 10 -9 -3 -16 -15 -16 -26 0 -10 -4 -16 -10 -13 -5 3 -10 15 -10 25 0
18 24 29 95 42 21 4 35 -8 35 -29z m-1353 -47 c-3 -8 2 -16 14 -19 12 -3 19 0
19 9 0 8 5 14 10 14 6 0 10 -7 10 -15 0 -9 9 -15 25 -15 14 0 25 -4 25 -10 0
-12 -11 -12 -74 -4 -40 6 -46 10 -46 30 0 13 5 24 11 24 6 0 9 -6 6 -14z m587
-71 c-8 -13 -17 -35 -20 -51 -7 -40 -12 -44 -45 -44 -36 0 -36 9 -3 69 21 37
32 46 54 47 27 1 28 0 14 -21z m754 -21 c29 -8 27 -47 -3 -52 -19 -3 -19 -2
-3 11 10 8 15 17 11 20 -11 12 -88 8 -101 -5 -9 -9 -12 -8 -12 4 0 9 6 19 13
21 18 8 68 8 95 1z m-68 -44 c0 -5 -5 -10 -11 -10 -5 0 -7 5 -4 10 3 6 8 10
11 10 2 0 4 -4 4 -10z m70 -35 c15 -9 12 -42 -4 -48 -8 -3 -22 -4 -33 -2 -72
15 -73 15 -73 42 0 25 1 26 50 20 28 -3 55 -9 60 -12z m-1230 -5 c0 -5 -4 -10
-8 -10 -5 0 -17 -7 -28 -15 -18 -15 -17 -16 14 -10 18 4 32 2 32 -3 0 -5 -21
-13 -46 -17 -26 -3 -52 -9 -59 -12 -8 -2 -16 5 -20 18 -9 27 16 50 45 42 10
-3 27 0 37 6 23 13 33 14 33 1z m876 -47 c15 -27 40 -70 56 -98 16 -27 29 -54
29 -60 -1 -12 -101 -16 -101 -4 0 5 -11 4 -25 -1 -14 -5 -133 -9 -265 -8 -213
1 -240 3 -237 17 2 9 9 15 16 13 7 -1 10 2 6 8 -3 5 6 32 22 60 21 37 34 50
51 50 12 0 22 -2 22 -4 0 -2 -12 -24 -26 -50 l-26 -46 56 0 c37 0 56 -4 56
-12 0 -9 3 -9 12 0 16 16 128 16 128 0 0 -10 2 -10 8 -1 5 8 46 13 124 15
l116 3 -44 75 c-24 41 -44 78 -44 83 0 4 9 7 20 7 13 0 28 -16 46 -47z m300
-9 c30 -8 54 -20 54 -25 0 -12 0 -12 -50 6 -49 17 -60 18 -60 6 0 -5 23 -17
50 -26 62 -21 67 -39 5 -21 -51 16 -79 40 -71 61 7 18 6 18 72 -1z m-1160 -19
c9 -22 -10 -40 -57 -54 -36 -11 -44 -10 -57 3 -20 19 -7 35 41 53 45 16 67 16
73 -2z m1137 -49 c38 -15 47 -23 45 -40 -4 -26 -40 -33 -61 -12 -9 9 -26 16
-39 16 -21 0 -18 -4 20 -36 23 -20 42 -42 42 -50 0 -18 2 -18 -64 7 -31 12
-56 26 -56 31 0 6 6 8 14 5 19 -8 28 3 16 18 -6 7 -8 20 -4 29 8 21 72 22 80
1 7 -16 34 -21 34 -6 0 5 -20 17 -45 27 -25 9 -45 21 -45 26 0 5 3 8 8 6 4 -1
29 -12 55 -22z m-1123 -3 c0 -4 -10 -17 -22 -30 -21 -23 -13 -34 9 -12 6 6 17
9 25 6 7 -2 -12 -16 -42 -31 -59 -27 -82 -18 -40 16 24 19 11 25 -21 8 -13 -8
-19 -7 -19 0 0 6 8 13 18 16 9 3 28 12 42 19 27 16 50 19 50 8z m48 -84 c3
-19 -72 -72 -96 -67 -9 2 -18 13 -20 25 -6 41 108 83 116 42z m1035 -67 c19
-21 20 -24 5 -39 -17 -16 -48 -12 -48 7 0 7 8 9 20 5 24 -8 26 7 4 26 -14 11
-18 10 -30 -6 -13 -18 -14 -18 -34 0 -23 21 -25 36 -8 53 13 13 55 -8 91 -46z
m-1013 39 c0 -6 -10 -17 -22 -25 -26 -19 -18 -32 10 -17 45 24 42 9 -7 -30
-29 -23 -55 -38 -59 -34 -4 3 1 12 11 19 29 22 21 41 -9 21 -32 -21 -46 -11
-15 11 12 9 34 27 49 40 29 25 42 30 42 15z m990 -116 c0 -1 -9 -10 -21 -21
-20 -18 -20 -18 -14 8 7 26 -15 54 -23 30 -2 -7 -8 -10 -12 -7 -5 3 -7 12 -4
19 3 7 -2 18 -9 25 -12 9 -16 8 -21 -4 -3 -9 -11 -13 -17 -10 -7 5 -5 13 7 26
16 18 18 17 65 -23 27 -23 49 -42 49 -43z m-871 -9 c8 -10 3 -24 -25 -60 -30
-40 -38 -45 -55 -36 -10 6 -19 15 -19 21 0 6 7 6 20 -1 16 -9 22 -8 26 4 3 8
2 21 -2 27 -5 9 -2 10 9 6 11 -4 20 1 27 13 7 14 7 20 0 20 -5 0 -10 5 -10 10
0 14 16 12 29 -4z m708 -57 l31 -49 -21 -15 c-19 -13 -23 -13 -39 2 -20 18
-24 53 -7 53 6 0 8 7 5 15 -3 8 -9 22 -12 30 -13 33 13 11 43 -36z m-667 -34
c-27 -50 -47 -62 -67 -42 -14 14 -7 51 8 42 4 -3 6 -12 2 -20 -11 -29 16 -14
37 20 14 23 19 42 15 57 -7 22 -6 22 11 5 18 -17 18 -19 -6 -62z m-29 42 c-10
-9 -11 -8 -5 6 3 10 9 15 12 12 3 -3 0 -11 -7 -18z m642 -112 c-10 -7 -21 -11
-26 -8 -5 3 0 11 9 17 19 15 11 36 -14 36 -12 0 -13 3 -4 12 16 16 -4 53 -22
39 -7 -6 -16 -7 -21 -3 -9 8 1 -27 20 -75 12 -27 11 -34 -2 -44 -21 -18 -47 1
-51 39 -3 30 -32 69 -32 43 0 -8 -8 -10 -20 -6 -32 10 -24 -18 11 -37 22 -13
30 -24 27 -40 -3 -26 -34 -36 -52 -18 -8 10 -6 12 12 7 31 -7 28 12 -9 42 -35
30 -32 61 6 61 13 0 27 5 31 11 4 7 15 1 30 -17 l24 -29 -10 29 c-6 16 -9 30
-8 31 2 1 17 9 33 18 l30 15 28 -55 c27 -52 27 -56 10 -68z m-565 85 c-6 -38
7 -49 16 -15 4 14 11 25 16 25 14 0 13 -5 -15 -60 -29 -57 -48 -65 -40 -17 l5
32 -15 -27 c-9 -16 -20 -28 -26 -28 -6 0 -9 3 -7 8 2 4 15 31 27 60 26 58 46
69 39 22z m86 -27 c18 23 46 12 46 -18 0 -13 5 -27 10 -30 6 -4 10 5 10 19 0
14 5 26 10 26 7 0 9 -14 5 -37 -13 -81 -15 -84 -38 -81 -25 3 -36 43 -18 61
13 13 15 57 3 57 -5 0 -19 -22 -32 -50 -31 -67 -55 -68 -46 -2 4 26 10 56 13
67 5 18 7 18 15 -5 9 -23 10 -24 22 -7z m140 -25 c0 -10 -1 -38 -2 -63 -2 -41
-4 -45 -27 -45 -14 0 -25 5 -25 10 0 6 9 10 20 10 25 0 26 18 3 36 -17 13 -17
13 0 14 21 0 24 40 2 40 -8 0 -15 5 -15 11 0 6 10 9 23 7 13 -2 22 -10 21 -20z
m55 -15 c5 -21 13 -50 17 -65 9 -40 -13 -36 -25 5 -9 31 -9 31 -10 5 -1 -15
-6 -30 -13 -34 -8 -5 -9 8 -4 51 10 86 20 96 35 38z m76 0 c3 -21 8 -48 11
-60 2 -13 0 -23 -5 -23 -5 0 -16 -3 -25 -6 -9 -3 -16 -1 -16 5 0 6 7 11 15 11
22 0 19 40 -2 41 -11 0 -13 3 -5 6 6 2 12 15 12 28 0 18 -4 22 -20 18 -11 -3
-20 0 -20 6 0 6 11 11 25 11 20 0 25 -6 30 -37z"/>
<path d="M710 1391 c0 -6 5 -13 10 -16 6 -3 10 1 10 9 0 9 -4 16 -10 16 -5 0
-10 -4 -10 -9z"/>
<path d="M485 1338 c12 -42 35 -64 35 -33 0 21 -28 75 -39 75 -5 0 -3 -19 4
-42z"/>
<path d="M1281 1131 c-9 -6 -10 -11 -2 -15 13 -8 31 1 31 15 0 11 -11 11 -29
0z"/>
<path d="M174 1095 c21 -16 32 -13 21 4 -3 6 -14 11 -23 11 -15 -1 -15 -2 2
-15z"/>
<path d="M580 1010 c0 -5 5 -10 11 -10 5 0 7 5 4 10 -3 6 -8 10 -11 10 -2 0
-4 -4 -4 -10z"/>
<path d="M94 896 c11 -9 36 -16 55 -16 48 0 28 17 -29 25 -42 6 -44 5 -26 -9z"/>
<path d="M1324 661 c7 -11 76 -22 89 -14 5 3 3 9 -4 14 -18 11 -92 12 -85 0z"/>
<path d="M89 634 c-11 -14 -10 -16 9 -12 13 1 23 7 23 13 1 17 -17 16 -32 -1z"/>
<path d="M128 578 c-25 -9 -39 -28 -20 -28 19 0 82 22 87 30 8 13 -32 11 -67
-2z"/>
<path d="M1280 461 c0 -5 7 -11 15 -15 8 -3 15 -1 15 3 0 5 -7 11 -15 15 -8 3
-15 1 -15 -3z"/>
<path d="M195 443 c-22 -15 -34 -28 -27 -31 15 -5 74 29 80 46 6 18 -8 14 -53
-15z"/>
<path d="M1220 415 c0 -8 9 -15 20 -15 11 0 20 2 20 5 0 2 -9 9 -20 15 -16 9
-20 8 -20 -5z"/>
<path d="M1090 221 c0 -13 26 -32 33 -24 8 7 -11 33 -24 33 -5 0 -9 -4 -9 -9z"/>
<path d="M972 153 c2 -9 8 -18 15 -20 7 -3 9 3 6 16 -6 25 -26 28 -21 4z"/>
<path d="M557 174 c-4 -4 -7 -14 -7 -23 0 -11 3 -12 11 -4 6 6 10 16 7 23 -2
6 -7 8 -11 4z"/>
<path d="M625 127 c-4 -10 -5 -21 -1 -24 10 -10 18 4 13 24 -4 17 -4 17 -12 0z"/>
</g>
</svg>
